<?xml version="1.0" encoding="UTF-8"?>
<svg id="Capa_2" data-name="Capa 2" xmlns="http://www.w3.org/2000/svg" viewBox="0 0 283.43 30">
  <defs>
    <style>
      .cls-1, .cls-2 {
        fill: #fff;
      }

      .cls-2 {
        opacity: .5;
      }
    </style>
  </defs>
  <g id="back1">
    <g id="logo">
      <g>
        <rect class="cls-1" x="227.34" y="-26.1" width="2.2" height="109.99" transform="translate(257.34 -199.54) rotate(90)"/>
        <rect class="cls-1" x="173.44" y="0" width="109.99" height="1.1"/>
        <g>
          <path class="cls-1" d="M182.13,10.6c1.34-.96,3.06-1.44,5.15-1.44s3.68.39,4.87,1.17c1.19.78,1.78,1.53,1.78,2.26h5.63c0-1.8-1.06-3.42-3.18-4.84-2.12-1.42-5.12-2.13-9-2.13s-7.04.78-9.38,2.35c-2.34,1.57-3.51,3.78-3.51,6.64s1.17,5.08,3.51,6.65c2.34,1.57,5.47,2.36,9.38,2.36s6.89-.73,9-2.18c2.11-1.45,3.17-3.08,3.17-4.88h-5.63c0,.73-.6,1.49-1.79,2.3-1.19.81-2.81,1.21-4.86,1.21s-3.81-.48-5.15-1.44c-1.34-.96-2.01-2.3-2.01-4.01s.67-3.05,2.01-4.01Z"/>
          <path class="cls-1" d="M225.62,7.89c-2.5-1.51-5.68-2.27-9.54-2.27s-7.04.76-9.53,2.27c-2.5,1.51-3.74,3.76-3.74,6.75s1.25,5.25,3.75,6.77c2.5,1.52,5.68,2.28,9.53,2.28s7.04-.76,9.54-2.28c2.5-1.52,3.75-3.78,3.75-6.77s-1.25-5.23-3.75-6.75ZM221.66,18.75c-1.46.92-3.32,1.38-5.58,1.38s-4.11-.46-5.57-1.38c-1.46-.92-2.19-2.29-2.19-4.11s.73-3.18,2.19-4.1c1.46-.92,3.32-1.38,5.57-1.38s4.12.46,5.58,1.38c1.46.92,2.19,2.29,2.19,4.1s-.73,3.19-2.19,4.11Z"/>
          <polygon class="cls-1" points="253.82 20.25 241.88 5.78 232.77 5.78 232.77 23.51 238.29 23.51 238.29 8.76 250.45 23.51 259.34 23.51 259.34 5.78 253.82 5.78 253.82 20.25"/>
          <polygon class="cls-1" points="283.43 9.34 283.43 5.78 263.76 5.78 263.76 23.51 269.28 23.51 269.28 17.27 282.12 17.27 282.12 13.97 269.28 13.97 269.28 9.34 283.43 9.34"/>
        </g>
        <g>
          <polygon class="cls-1" points="127.01 16.24 136.36 15.82 142.43 30 132.23 30 127.01 16.24"/>
          <polygon class="cls-1" points="82.44 0 82.35 21.29 75.98 0 60.79 0 60.79 30 70.25 30 70.25 7.89 76.8 30 91.95 30 91.95 0 82.44 0"/>
          <path class="cls-1" d="M93.95,0h20.41v6.53h-10.88v5.24h10.06v6.29h-10.06v5.38h10.88v6.56h-20.41V0Z"/>
          <path class="cls-1" d="M143.88,0h15.97c4.26,0,7.02,1.13,8.27,3.38,1.25,2.25,1.88,6.12,1.88,11.6s-.63,9.35-1.88,11.62c-1.25,2.27-4.01,3.4-8.27,3.4h-15.97V0ZM157.12,23.44c1.21,0,2.08-.31,2.59-.94.51-.63.77-3.14.77-7.52s-.26-6.85-.77-7.49c-.51-.64-1.37-.96-2.59-.96h-3.71v16.91h3.71Z"/>
          <path class="cls-1" d="M140.3,3.42C139.39,1.14,136.97,0,133.01,0h-16.66v30h9.55v-7.47h7.11c3.95,0,6.38-1.14,7.28-3.42.9-2.28,1.35-4.9,1.35-7.87s-.45-5.54-1.35-7.82ZM131.7,15.07c-.33.61-.9.91-1.7.91h-4.09V6.53h4.09c.8,0,1.37.31,1.7.92.33.61.5,1.88.5,3.79s-.17,3.22-.5,3.82Z"/>
        </g>
        <g>
          <path class="cls-1" d="M37.67,26.63l.51-2.36.51,2.36,2.36.51-2.36.51-.51,2.36-.51-2.36-2.36-.51,2.36-.51Z"/>
          <g>
            <polygon class="cls-1" points="17.76 18.49 17.77 18.49 17.77 18.49 17.76 18.49"/>
            <polygon class="cls-1" points="39.58 18.49 39.58 18.49 39.58 18.49 39.58 18.49"/>
            <path class="cls-1" d="M39.57,11.36c-1.5-4.59-5.81-7.91-10.9-7.91-5.09,0-9.4,3.32-10.9,7.91,3.34-.28,7.01-.45,10.9-.45s7.56.17,10.9.45ZM29.36,4.85c1.03-1.03,4.18.37,5.22,1.05,1.18.84,2.34,1.93,1.95,2.7-.26.55-2.36.8-4.38-.18-2.02-.98-3.2-3.17-2.78-3.58Z"/>
            <path class="cls-2" d="M39.57,11.36c-1.5-4.59-5.81-7.91-10.9-7.91-5.09,0-9.4,3.32-10.9,7.91,3.34-.28,7.01-.45,10.9-.45s7.56.17,10.9.45ZM29.36,4.85c1.03-1.03,4.18.37,5.22,1.05,1.18.84,2.34,1.93,1.95,2.7-.26.55-2.36.8-4.38-.18-2.02-.98-3.2-3.17-2.78-3.58Z"/>
            <path class="cls-1" d="M28.67,22.46c-2.53,0-4.59.64-4.59.86s2.05.86,4.59.86,4.59-.64,4.59-.86-2.05-.86-4.59-.86Z"/>
            <path class="cls-1" d="M57.35,14.92c-.43-.87-7.52-2.71-17.78-3.56-3.34-.28-7.01-.45-10.9-.45s-7.56.17-10.9.45C7.52,12.21.43,14.06,0,14.92c.37.75,5.69,2.22,13.72,3.16l6.65,3.84h.88l-3.48-3.43s0,0-.01,0c0,0,0,0,0,0h0s0,0,0,0c.23-.25,4.89-.86,10.91-.86s10.68.61,10.91.86c0,0,0,0,0,0h0s0,0,0,0h0s-3.48,3.44-3.48,3.44h.88l6.65-3.84c8.03-.94,13.35-2.41,13.72-3.16ZM51.61,14.63c-15.23-1.02-30.8-.78-45.88-.08,15.2-1.9,30.68-1.9,45.88,0,0,0,0,.08,0,.08Z"/>
          </g>
          <path class="cls-1" d="M18.58,2.36l.51-2.36.51,2.36,2.36.51-2.36.51-.51,2.36-.51-2.36-2.36-.51,2.36-.51Z"/>
        </g>
      </g>
    </g>
  </g>
</svg>