<svg width="123" height="36" viewBox="0 0 123 36" fill="none" xmlns="http://www.w3.org/2000/svg">
<rect x="14.6885" y="20.8894" width="21.3696" height="21.3696" rx="3.17695" transform="rotate(-45 14.6885 20.8894)" fill="#E8E7F5"/>
<rect y="20.8869" width="21.3696" height="21.3696" rx="3.17695" transform="rotate(-45 0 20.8869)" fill="#4612B4"/>
<path d="M30.0268 19.851C30.6386 20.4224 30.6386 21.3489 30.0268 21.9203L24.6005 26.9873C23.3796 28.1273 21.4846 28.1272 20.2638 26.9872L14.8403 21.9223C14.229 21.351 14.229 20.4252 14.8403 19.8539L20.2666 14.7862C21.4874 13.6461 23.3826 13.6461 24.6034 14.7862L30.0268 19.851Z" fill="white" fill-opacity="0.4"/>
<path d="M66.1391 7.56493L55.1714 34.0422L50.4603 34.08L53.4 26.4773L44.9199 7.56493H50.5733L55.8122 20.1606L60.6741 7.56493H66.1391ZM76.4813 7.03539C82.587 7.03539 86.5444 11.4987 86.5444 17.0211C86.5444 22.5435 82.587 27.0068 76.4813 27.0068C70.451 27.0068 66.4559 22.5435 66.4559 17.0211C66.4559 11.4609 70.451 6.99756 76.4813 7.03539ZM76.4813 11.5744C73.5415 11.5744 71.7701 13.8438 71.8078 17.0589C71.8078 20.2362 73.6169 22.5057 76.4813 22.5057C79.4211 22.5057 81.1925 20.274 81.1925 17.0589C81.1925 13.806 79.4211 11.5744 76.4813 11.5744ZM108.735 0V26.4773H103.459V24.4347C101.537 26.2503 99.3885 27.0068 97.3533 27.0068C92.5667 27.0068 89.2124 22.5813 89.2124 17.0211C89.2124 11.4609 92.529 7.03539 97.4287 7.03539C99.4262 7.03539 101.612 7.90536 103.459 9.64529V0H108.735ZM98.5216 22.5435C100.029 22.5435 101.951 21.787 103.459 20.274V13.806C101.951 12.293 100.029 11.5365 98.484 11.5365C95.9588 11.5365 94.5266 13.7682 94.5643 17.0211C94.5266 20.3119 95.9588 22.5435 98.5216 22.5435ZM117.849 0V20.0093C117.849 22.014 118.867 22.7326 120.261 22.7326C120.676 22.7326 121.128 22.6192 121.618 22.4679L122.9 25.9477C121.467 26.6286 119.922 27.0068 118.49 27.0068C115.286 27.0446 112.573 25.2291 112.573 20.6901V0H117.849Z" fill="#E8E7F5"/>
</svg>
